<mxfile host="app.diagrams.net" agent="Mozilla/5.0 (Windows NT 10.0; Win64; x64) AppleWebKit/537.36 (KHTML, like Gecko) Chrome/141.0.0.0 Safari/537.36" version="28.2.8">
  <diagram name="Страница — 1" id="ABNl6j7eyDVaV6XBzIJv">
    <mxGraphModel dx="1426" dy="905" grid="1" gridSize="10" guides="1" tooltips="1" connect="1" arrows="1" fold="1" page="1" pageScale="1" pageWidth="827" pageHeight="1169" math="0" shadow="0">
      <root>
        <mxCell id="0" />
        <mxCell id="1" parent="0" />
        <mxCell id="m7TBVSfknAd7vIHP5YK3-4" value="" style="rounded=0;whiteSpace=wrap;html=1;labelBackgroundColor=none;" vertex="1" parent="1">
          <mxGeometry x="50" y="40" width="740" height="60" as="geometry" />
        </mxCell>
        <mxCell id="m7TBVSfknAd7vIHP5YK3-5" value="" style="ellipse;whiteSpace=wrap;html=1;aspect=fixed;labelBackgroundColor=none;" vertex="1" parent="1">
          <mxGeometry x="80" y="50" width="40" height="40" as="geometry" />
        </mxCell>
        <mxCell id="m7TBVSfknAd7vIHP5YK3-8" value="WebSite" style="text;html=1;whiteSpace=wrap;align=left;verticalAlign=middle;rounded=0;fontFamily=Georgia;labelBackgroundColor=none;" vertex="1" parent="1">
          <mxGeometry x="130" y="60" width="70" height="30" as="geometry" />
        </mxCell>
        <mxCell id="m7TBVSfknAd7vIHP5YK3-9" value="" style="rounded=0;whiteSpace=wrap;html=1;labelBackgroundColor=none;" vertex="1" parent="1">
          <mxGeometry x="215" y="60" width="505" height="20" as="geometry" />
        </mxCell>
        <mxCell id="m7TBVSfknAd7vIHP5YK3-13" value="" style="rounded=0;whiteSpace=wrap;html=1;labelBackgroundColor=none;" vertex="1" parent="1">
          <mxGeometry x="50" y="120" width="740" height="60" as="geometry" />
        </mxCell>
        <mxCell id="m7TBVSfknAd7vIHP5YK3-15" value="WebSite" style="text;html=1;whiteSpace=wrap;align=center;verticalAlign=middle;rounded=0;fontFamily=Georgia;labelBackgroundColor=none;" vertex="1" parent="1">
          <mxGeometry x="70" y="130" width="110" height="35" as="geometry" />
        </mxCell>
        <mxCell id="m7TBVSfknAd7vIHP5YK3-16" value="" style="rounded=0;whiteSpace=wrap;html=1;labelBackgroundColor=none;" vertex="1" parent="1">
          <mxGeometry x="215" y="140" width="505" height="20" as="geometry" />
        </mxCell>
        <mxCell id="m7TBVSfknAd7vIHP5YK3-17" value="" style="rounded=0;whiteSpace=wrap;html=1;labelBackgroundColor=none;" vertex="1" parent="1">
          <mxGeometry x="50" y="200" width="740" height="60" as="geometry" />
        </mxCell>
        <mxCell id="m7TBVSfknAd7vIHP5YK3-18" value="" style="ellipse;whiteSpace=wrap;html=1;aspect=fixed;labelBackgroundColor=none;" vertex="1" parent="1">
          <mxGeometry x="370" y="200" width="40" height="40" as="geometry" />
        </mxCell>
        <mxCell id="m7TBVSfknAd7vIHP5YK3-21" style="edgeStyle=orthogonalEdgeStyle;rounded=0;orthogonalLoop=1;jettySize=auto;html=1;exitX=1;exitY=0.5;exitDx=0;exitDy=0;fontColor=default;labelBackgroundColor=none;" edge="1" parent="1" source="m7TBVSfknAd7vIHP5YK3-19">
          <mxGeometry relative="1" as="geometry">
            <mxPoint x="400" y="250" as="targetPoint" />
          </mxGeometry>
        </mxCell>
        <mxCell id="m7TBVSfknAd7vIHP5YK3-19" value="WebSite" style="text;html=1;whiteSpace=wrap;align=center;verticalAlign=middle;rounded=0;fontFamily=Georgia;labelBackgroundColor=none;" vertex="1" parent="1">
          <mxGeometry x="340" y="240" width="90" height="20" as="geometry" />
        </mxCell>
        <mxCell id="m7TBVSfknAd7vIHP5YK3-24" value="" style="rounded=1;whiteSpace=wrap;html=1;labelBackgroundColor=none;" vertex="1" parent="1">
          <mxGeometry x="70" y="215" width="270" height="30" as="geometry" />
        </mxCell>
        <mxCell id="m7TBVSfknAd7vIHP5YK3-25" value="" style="rounded=1;whiteSpace=wrap;html=1;labelBackgroundColor=none;" vertex="1" parent="1">
          <mxGeometry x="470" y="215" width="280" height="30" as="geometry" />
        </mxCell>
        <mxCell id="m7TBVSfknAd7vIHP5YK3-32" value="" style="rounded=0;whiteSpace=wrap;html=1;labelBackgroundColor=none;" vertex="1" parent="1">
          <mxGeometry x="50" y="290" width="740" height="60" as="geometry" />
        </mxCell>
        <mxCell id="m7TBVSfknAd7vIHP5YK3-33" value="" style="ellipse;whiteSpace=wrap;html=1;aspect=fixed;labelBackgroundColor=none;" vertex="1" parent="1">
          <mxGeometry x="80" y="300" width="40" height="40" as="geometry" />
        </mxCell>
        <mxCell id="m7TBVSfknAd7vIHP5YK3-34" value="WebSite" style="text;html=1;whiteSpace=wrap;align=center;verticalAlign=middle;rounded=0;fontFamily=Georgia;labelBackgroundColor=none;" vertex="1" parent="1">
          <mxGeometry x="700" y="305" width="70" height="30" as="geometry" />
        </mxCell>
        <mxCell id="m7TBVSfknAd7vIHP5YK3-35" value="" style="rounded=0;whiteSpace=wrap;html=1;labelBackgroundColor=none;" vertex="1" parent="1">
          <mxGeometry x="161" y="310" width="505" height="20" as="geometry" />
        </mxCell>
      </root>
    </mxGraphModel>
  </diagram>
</mxfile>
